<?xml version="1.0" encoding="UTF-8" standalone="no"?>
<svg xmlns:osb="http://www.openswatchbook.org/uri/2009/osb" 
  xmlns:dc="http://purl.org/dc/elements/1.1/" 
  xmlns:cc="http://creativecommons.org/ns#" 
  xmlns:rdf="http://www.w3.org/1999/02/22-rdf-syntax-ns#" 
  xmlns:svg="http://www.w3.org/2000/svg" 
  xmlns="http://www.w3.org/2000/svg" id="svg8" version="1.1" viewBox="0 0 400 400" height="400mm" width="400mm">
  <defs id="defs2">
    <linearGradient id="linearGradient4630" osb:paint="solid">
      <stop style="stop-color:#000000;stop-opacity:1;" offset="0" id="stop4628" />
    </linearGradient>
  </defs>
  <metadata id="metadata5">
    <rdf:RDF>
      <cc:Work rdf:about="">
        <dc:format>image/svg+xml</dc:format>
        <dc:type rdf:resource="http://purl.org/dc/dcmitype/StillImage" />
        <dc:title></dc:title>
      </cc:Work>
    </rdf:RDF>
  </metadata>
  <g transform="translate(0,103)" id="layer1">
    <g id="layer1-6" transform="translate(-423.37947,-56.241206)">
      <circle style="opacity:1;fill:#42ccff;fill-opacity:1;stroke:#000000;stroke-width:0.5871653;stroke-linecap:butt;stroke-linejoin:round;stroke-miterlimit:4;stroke-dasharray:none;stroke-opacity:1;paint-order:markers stroke fill" id="path4634" cx="622.57294" cy="151.21292" r="194.59489" />
      <path style="fill:#2b5e7f;fill-opacity:0.89671362;stroke:#000000;stroke-width:0;stroke-linecap:butt;stroke-linejoin:miter;stroke-miterlimit:4;stroke-dasharray:none;stroke-opacity:1" d="M 731.56696,11.036572 474.92857,238.6657 674.31944,338.80146 C 792.51704,305.86944 852.59341,173.03204 795.66628,62.103776 Z" id="path4888" />
      <path style="fill:#ffffff;fill-opacity:1;stroke:#000000;stroke-width:0.5871653;stroke-linecap:butt;stroke-linejoin:miter;stroke-miterlimit:4;stroke-dasharray:none;stroke-opacity:1" d="M 475.92553,74.348679 549.16392,53.486857 V 219.93755 l -73.95611,18.50819 z" id="path815" />
      <path style="fill:#dddddd;stroke:#000000;stroke-width:0.5871653;stroke-linecap:butt;stroke-linejoin:miter;stroke-miterlimit:4;stroke-dasharray:none;stroke-opacity:1" d="M 623.37169,74.503853 548.69785,53.642007 V 220.09289 l 73.95612,18.5082 z" id="path815-9" />
      <path style="fill:#ffffff;stroke:#000000;stroke-width:0.5871653;stroke-linecap:butt;stroke-linejoin:miter;stroke-miterlimit:4;stroke-dasharray:none;stroke-opacity:1" d="m 623.37169,74.503853 73.2384,-20.861846 V 220.09289 l -73.95612,18.5082 z" id="path815-7" />
      <path style="fill:#dddddd;stroke:#000400;stroke-width:0.5871653;stroke-linecap:butt;stroke-linejoin:miter;stroke-miterlimit:4;stroke-dasharray:none;stroke-opacity:1" d="M 769.86731,74.091907 696.62892,53.230051 V 219.68096 l 73.95613,18.50818 z" id="path815-9-0" />
      <circle style="opacity:1;fill:#feffff;fill-opacity:1;stroke:#bcedff;stroke-width:7.20326567;stroke-linecap:butt;stroke-linejoin:round;stroke-miterlimit:4;stroke-dasharray:none;stroke-opacity:1;paint-order:markers stroke fill" id="path4692" cx="707.39301" cy="42.125996" r="35.780361" />
      <path style="fill:#00aa00;stroke-width:0.816;stroke:#000000;stroke-opacity:1;stroke-miterlimit:4;stroke-dasharray:none" d="m 547.84003,159.29081 c -0.21271,-0.24678 -1.2102,-0.61229 -2.21643,-0.8122 -1.00637,-0.19993 -2.3805,-0.63285 -3.05374,-0.96205 -1.73934,-0.85056 -3.67162,-2.6169 -3.92468,-3.58759 -0.49197,-1.88739 -2.43036,-3.44442 -2.43036,-1.95224 0,1.04901 -0.91812,0.68963 -1.61951,-0.63391 -0.36569,-0.6902 -0.94592,-1.5254 -1.28929,-1.85601 -0.34337,-0.3306 -0.54634,-0.79673 -0.45103,-1.03583 0.095,-0.23908 -0.1252,-0.90598 -0.48989,-1.48197 -0.36471,-0.57597 -0.66371,-1.27856 -0.66433,-1.56128 -5.9e-4,-0.28269 -0.52598,-1.11871 -1.1674,-1.8578 -1.37948,-1.58972 -2.70401,-4.32802 -2.70401,-5.59027 0,-0.49406 0.29729,-2.21959 0.66068,-3.83447 0.61449,-2.73033 0.62581,-3.03547 0.16131,-4.3526 -0.27463,-0.77904 -0.49941,-1.65407 -0.49941,-1.94452 0,-0.47174 -0.45477,-1.50475 -2.2013,-5.00024 -0.28793,-0.57616 -0.88999,-1.26008 -1.33806,-1.51979 -0.44808,-0.25971 -1.54028,-0.92195 -2.42719,-1.47162 -0.88691,-0.54971 -2.29092,-1.17346 -3.11993,-1.38616 -1.46994,-0.37712 -1.53833,-0.36272 -2.7602,0.58271 -1.04331,0.8072 -1.43057,0.93516 -2.31493,0.76487 -1.24017,-0.23881 -1.62926,0.15405 -1.63681,1.65283 0,0.54494 -0.15008,1.07718 -0.32742,1.18275 -0.17735,0.10561 -0.32254,0.0439 -0.32254,-0.13696 0,-0.57888 -1.30014,-0.35254 -2.35976,0.41077 -1.25798,0.90633 -2.67198,1.59044 -3.84866,1.86208 -1.43482,0.33123 -1.03576,-0.34066 0.80624,-1.35739 0.93127,-0.51403 2.04249,-1.19599 2.46926,-1.51549 1.0362,-0.77566 0.71078,-1.59189 -0.6348,-1.59189 -0.73666,0 -1.05326,-0.16718 -1.17661,-0.621 -0.0928,-0.34156 -0.29164,-0.62102 -0.44223,-0.62102 -0.15026,0 -0.4131,-0.25108 -0.58363,-0.55795 -0.47565,-0.85555 0.51649,-2.54128 1.79931,-3.05729 1.29939,-0.52274 1.34621,-0.8803 0.18527,-1.416 -1.31489,-0.60678 -1.29574,-1.37205 0.0539,-2.13856 1.19321,-0.67774 1.40901,-1.15287 0.793,-1.74588 -0.51024,-0.49131 -0.0634,-1.02071 0.86172,-1.02071 0.43309,0 1.10952,-0.31018 1.50322,-0.6893 1.3461,-1.29595 4.17347,-2.37439 4.8784,-1.86079 0.33547,0.24445 2.53969,0.61305 7.14503,1.19481 1.3906,0.17569 3.47733,0.75846 5.36709,1.49889 0.3441,0.1349 0.91751,-0.12096 1.63927,-0.73104 1.47028,-1.24284 3.24352,-1.29563 7.61762,-0.22686 1.83478,0.44829 3.46757,0.73679 3.62835,0.64111 0.46128,-0.27444 0.34094,-1.0704 -0.19136,-1.26708 -0.26612,-0.0982 -0.48382,-0.51311 -0.48382,-0.9218 0,-0.40865 -0.14509,-0.74305 -0.32253,-0.74305 -0.17736,0 -0.32242,-0.22588 -0.32242,-0.50197 0,-0.39156 -0.19515,-0.45571 -0.88702,-0.2917 -2.18987,0.51918 -2.5452,0.52552 -2.95295,0.0525 -0.34703,-0.40268 -0.29754,-0.66907 0.29682,-1.59484 1.14972,-1.79107 1.92865,-2.14015 3.57777,-1.60345 0.75623,0.24614 1.67608,0.72651 2.04407,1.06748 0.43663,0.40462 1.34294,0.69532 2.60858,0.83676 1.69606,0.18951 2.04992,0.13315 2.81883,-0.44919 l 0.87924,-0.66586 v 22.22409 22.22411 h -0.74588 c -0.74955,0 -2.12026,1.17154 -2.72487,2.32884 -0.59983,1.1479 -0.7354,3.09126 -0.32375,4.63703 0.34571,1.29775 0.55598,1.57127 1.37559,1.78952 0.53221,0.14163 1.29418,0.18325 1.69325,0.0924 0.69115,-0.15735 0.72566,-0.0764 0.72566,1.70372 0,1.02796 -0.0549,1.86898 -0.12188,1.86898 -0.067,0 -0.29585,-0.2019 -0.50856,-0.44871 z m -3.80426,-57.5056 c -0.62532,-0.25294 -0.47502,-1.04286 0.19846,-1.04286 0.68029,0 2.30102,-1.125038 2.30102,-1.59728 0,-0.170639 -0.2177,-0.519752 -0.48381,-0.775936 -0.91971,-0.885513 -0.23977,-2.594988 1.03221,-2.594988 0.41398,0 0.46589,0.263978 0.29548,1.500947 -0.17419,1.264138 -0.10481,1.590197 0.44225,2.066449 0.35691,0.311039 0.64897,0.875338 0.64897,1.253988 0,0.57004 -0.23573,0.72456 -1.37072,0.89824 -0.75381,0.1154 -1.66095,0.26486 -2.01567,0.33215 -0.35473,0.0672 -0.82645,0.0488 -1.04819,-0.0408 z m -3.06384,-1.44724 c -0.66519,-0.15302 -1.20944,-0.45431 -1.20944,-0.669389 0,-0.46593 3.47988,-1.767017 3.72111,-1.391251 0.0913,0.143179 -0.11712,0.406959 -0.46552,0.586253 -0.34802,0.179281 -0.67859,0.646997 -0.73469,1.039346 -0.0938,0.659001 -0.19429,0.692181 -1.31146,0.435041 z" id="path4814" />
      <path style="fill:#006600;stroke-width:0.819;stroke:#000000;stroke-opacity:1;stroke-miterlimit:4;stroke-dasharray:none" d="m 567.82841,218.22773 c -3.08082,-2.18134 -3.71395,-3.41692 -3.7104,-7.24184 10e-4,-1.29308 -0.16977,-3.4379 -0.38008,-4.76628 -0.28913,-1.82675 -0.29172,-3.04777 -0.0119,-5.0112 0.20432,-1.42775 0.53641,-4.92143 0.73778,-7.76371 0.43435,-6.12677 0.19754,-7.11814 -2.07742,-8.69742 -0.75094,-0.52133 -1.82055,-1.7022 -2.37677,-2.62411 -2.60015,-4.30933 -3.86276,-6.66026 -3.74497,-6.97279 0.0701,-0.18755 0.24371,-1.09803 0.38439,-2.02332 0.17613,-1.15835 0.56704,-2.05495 1.25546,-2.87871 1.19762,-1.43321 1.381,-3.52963 0.40975,-4.68315 -0.51326,-0.60967 -0.67696,-0.6483 -1.261,-0.2976 -0.5753,0.34555 -0.84202,0.30139 -1.86965,-0.30941 -0.65936,-0.39187 -1.79186,-1.48465 -2.51683,-2.4284 -0.7784,-1.01342 -1.77132,-1.89808 -2.42527,-2.16081 -1.07834,-0.43337 -1.10713,-0.49205 -1.10713,-2.25871 0,-1.6244 0.11447,-1.93463 1.10233,-2.97117 0.6062,-0.63657 1.26298,-1.15743 1.4593,-1.15743 0.47585,0 0.71599,1.09679 0.6148,2.80771 -0.0787,1.33571 -0.0283,1.42348 1.13854,1.95996 1.20056,0.55209 1.22138,0.59219 1.2263,2.36007 0,0.98913 0.12691,1.98359 0.27621,2.20989 0.14921,0.22632 1.23427,0.57012 2.4112,0.76399 l 2.13996,0.35252 1.32979,-1.1555 c 1.47432,-1.28094 3.06826,-1.51934 4.58466,-0.68568 0.47708,0.26232 1.72418,0.45222 3.01239,0.45872 1.20892,0.005 2.19816,0.1252 2.19816,0.26483 0,0.62151 2.28764,2.4184 4.07076,3.19746 2.26786,0.99081 3.30592,1.96103 3.89959,3.64437 0.44801,1.27019 1.42064,1.96825 2.77653,1.99254 0.44778,0.009 1.09915,0.22193 1.4476,0.47537 0.34845,0.25345 1.50422,0.69576 2.56839,0.98292 2.13787,0.5769 4.45112,2.36975 4.45112,3.44977 0,0.3441 -0.36629,1.2468 -0.81407,2.00599 -1.415,2.39896 -1.75617,3.28086 -2.12249,5.4855 -0.56952,3.42885 -1.3154,4.72765 -3.15687,5.49714 -2.07963,0.86901 -2.97113,1.70422 -3.22874,3.0249 -0.11699,0.60243 -0.41198,1.46074 -0.65433,1.90741 -0.24234,0.44666 -0.44151,0.98924 -0.44261,1.20571 -0.001,0.21646 -0.3684,0.69994 -0.81618,1.07439 -0.44778,0.37443 -0.81421,0.84367 -0.81421,1.04273 0,0.19907 -0.58611,0.86804 -1.3026,1.48659 -0.72854,0.62902 -1.30259,1.41218 -1.30259,1.77705 0,0.80565 -1.02197,1.68993 -2.19695,1.90092 -0.61468,0.11037 -0.98357,0.44159 -1.21532,1.09122 -0.18317,0.51301 -0.58935,1.18163 -0.90284,1.48581 -0.31337,0.30418 -0.56988,0.84196 -0.56988,1.19503 0,0.35306 -0.2522,1.09298 -0.56053,1.6443 -0.35595,0.63651 -0.56398,1.7208 -0.56988,2.97089 -0.0119,1.27733 -0.15924,2.05782 -0.43632,2.2227 -0.28322,0.16857 -0.3929,0.7712 -0.32569,1.7898 0.0861,1.30232 0.20912,1.55049 0.81039,1.6328 1.02196,0.13991 1.6742,0.95828 1.06112,1.33138 -0.73347,0.44635 -1.09484,0.35725 -2.45407,-0.60514 z m 6.13662,-2.31101 c 0.15787,-0.4624 1.87458,-0.72727 1.87458,-0.28922 0,0.33509 -0.77138,0.68071 -1.51923,0.68071 -0.26893,0 -0.42884,-0.17617 -0.35535,-0.39149 z m 47.79534,-42.42823 c -0.61961,-0.75751 -0.6723,-1.09539 -0.47966,-3.07303 l 0.21651,-2.22196 -1.33647,-0.38509 c -0.74883,-0.21576 -1.5671,-0.72366 -1.86101,-1.15513 -0.57236,-0.83998 -1.48665,-0.97332 -2.95244,-0.43062 -0.50429,0.18667 -1.79606,0.47205 -2.87071,0.63417 -1.07479,0.16217 -2.3657,0.45271 -2.86872,0.64577 -0.84031,0.32248 -1.02149,0.25181 -2.22883,-0.86907 -3.07489,-2.8548 -5.43898,-6.94517 -4.71414,-8.15646 0.19102,-0.31923 0.36349,-1.84886 0.38317,-3.3992 0.043,-3.35674 0.40272,-4.22031 2.91438,-6.98998 1.08784,-1.19955 1.79201,-2.26718 1.79201,-2.71676 0,-0.75043 0.75844,-1.725 1.34248,-1.725 0.17551,0 0.54142,-0.51185 0.81321,-1.13741 0.52866,-1.21683 0.41504,-1.48255 -0.90701,-2.12104 -0.7028,-0.33945 -0.76016,-0.55926 -0.76016,-2.91369 0,-1.40058 0.12056,-2.66238 0.26831,-2.80397 0.14768,-0.14163 1.24673,-0.25876 2.44249,-0.26032 l 2.17404,-0.004 0.0985,-1.28814 c 0.0764,-1.00622 -0.0812,-1.49322 -0.7219,-2.22519 l -0.81973,-0.93701 0.80324,-0.352 c 0.46834,-0.2052 0.80324,-0.616 0.80324,-0.98511 0,-0.49465 -0.21366,-0.63313 -0.97691,-0.63313 -0.82306,0 -0.97705,-0.12254 -0.97705,-0.777 0,-1.01178 -1.3004,-1.38079 -2.40752,-0.68318 -0.90936,0.57304 -1.17473,0.40819 -1.17473,-0.7298 0,-0.91308 1.08857,-2.06729 2.11681,-2.24449 0.8467,-0.14595 1.05889,-1.6767 0.33849,-2.4422 -0.49063,-0.52136 -0.45887,-0.56995 0.49073,-0.75259 1.1576,-0.22265 2.26449,0.22483 2.26449,0.91547 0,0.70328 2.42664,5.06692 3.06435,5.51036 0.39508,0.27471 1.26505,-0.0513 1.60969,-0.60317 0.15267,-0.24444 0.75624,-0.63683 1.34125,-0.87194 0.93803,-0.37692 1.08744,-0.60498 1.26358,-1.92814 0.10958,-0.82537 0.29528,-1.97877 0.41208,-2.56313 0.2042,-1.02087 0.17812,-1.05612 -0.66502,-0.90109 -0.99649,0.18318 -1.6034,-0.48558 -1.96787,-2.16795 -0.27781,-1.2829 0.26475,-2.25006 1.49326,-2.66195 0.5305,-0.17785 1.47173,-0.96217 2.09158,-1.74287 l 1.12696,-1.41949 v 31.20825 c 0,17.16456 -0.0627,31.2083 -0.13921,31.2083 -0.0764,0 -0.45234,-0.38298 -0.83525,-0.85111 z m -62.52944,-17.58927 c 0,-1.39511 -0.35508,-1.76059 -2.32554,-2.39351 l -1.41954,-0.456 1.23269,0.13489 c 1.50188,0.16426 4.79207,1.57021 4.79207,2.04756 0,0.3653 -1.61981,1.85478 -2.03546,1.8716 -0.13419,0.005 -0.24422,-0.5366 -0.24422,-1.20454 z m 3.64172,0.0753 0.85889,-0.82597 1.16918,0.69495 c 0.64299,0.38217 1.16904,0.75387 1.16904,0.82593 0,0.0721 -0.91255,0.13115 -2.02793,0.13115 h -2.02795 z m -5.40168,-4.77682 c -0.3412,-0.36343 -0.79292,-1.33035 -1.00413,-2.14867 -0.31141,-1.20733 -0.59363,-1.59114 -1.4966,-2.0355 -1.36574,-0.6721 -2.68963,-0.7044 -3.22949,-0.0787 -0.22303,0.25838 -0.90048,0.46979 -1.50544,0.46979 h -1.09987 V 124.9671 c 0,-20.99792 0.0369,-22.46478 0.56987,-22.86349 0.54282,-0.40571 0.54282,-0.4463 0,-0.85203 -0.56324,-0.42109 -0.7982,-1.462477 -0.32568,-1.443208 0.13438,0.0053 0.52877,0.216868 0.87648,0.469778 0.86196,0.62702 1.09595,0.57998 1.21767,-0.24485 0.0899,-0.61156 0.29774,-0.704701 1.56957,-0.704701 1.2919,0 1.47838,0.08748 1.57413,0.738601 0.0949,0.64262 0.23744,0.71386 1.09915,0.5481 0.54478,-0.10481 1.18222,-0.1905 1.41659,-0.1905 0.23434,0 0.47251,-0.37672 0.52912,-0.837145 0.10826,-0.882562 0.57505,-1.117082 3.00167,-1.509245 1.84725,-0.298519 3.12623,-1.638197 3.12623,-3.274846 0,-1.091778 -0.12572,-1.330639 -0.83795,-1.591004 -1.78966,-0.654369 -0.17589,-2.170376 2.31964,-2.179111 0.72547,-0.004 1.47259,-0.152323 1.66042,-0.33306 0.38305,-0.368381 8.86566,-0.767717 10.08014,-0.474545 0.48544,0.117121 0.7811,0.416395 0.7811,0.790494 0,0.866033 0.53996,1.062637 1.3746,0.500443 1.01841,-0.68601 4.08307,-0.653389 4.89372,0.05214 0.5903,0.513837 0.64693,0.506505 1.16551,-0.150947 0.45464,-0.576671 0.75006,-0.658801 1.78471,-0.496156 1.09089,0.171513 1.26235,0.111695 1.42838,-0.498643 0.14923,-0.549066 0.35079,-0.654369 0.96733,-0.505526 0.51915,0.125194 1.24623,-0.07543 2.18031,-0.601882 2.01884,-1.13786 4.23302,-1.372313 5.36415,-0.56803 0.60018,0.426704 1.21042,0.581595 1.90522,0.483531 0.56225,-0.07927 1.2919,0.0053 1.62152,0.190794 0.49407,0.276194 0.50808,0.336726 0.0799,0.344587 -0.67511,0.01191 -1.59725,1.000821 -1.59725,1.71199 0,0.407581 0.15269,0.496447 0.56987,0.331313 1.33548,-0.528751 1.70964,-0.536294 1.70964,-0.03454 0,0.635007 0.56435,0.640208 2.10905,0.01959 1.28489,-0.516338 3.59003,-0.507154 3.59003,0.01376 0,0.170825 -0.79796,0.61636 -1.77329,0.9903 -0.97532,0.373927 -1.87519,0.938926 -1.99976,1.255563 -0.12454,0.316623 -0.6089,0.917354 -1.07625,1.334979 -1.06725,0.953642 -1.08918,1.589695 -0.0543,1.589695 1.04451,0 1.33389,0.509919 0.81667,1.439263 -0.34338,0.617142 -0.34069,0.893957 0.0156,1.53308 0.3807,0.684148 0.35744,0.862858 -0.1893,1.454868 -0.34279,0.3712 -1.26297,0.95013 -2.04493,1.2865 l -1.42175,0.61163 1.01471,0.89124 c 1.00043,0.87875 1.30751,1.55298 0.70735,1.55298 -0.16891,0 -0.55524,0.40372 -0.85825,0.89715 -0.82589,1.3446 -2.956,2.54803 -4.5102,2.54803 -1.11478,0 -1.49055,0.1881 -2.50243,1.25281 -0.94553,0.99475 -1.42052,1.25279 -2.30598,1.25279 -1.59616,0 -2.03435,0.45637 -3.30766,3.44518 -0.95034,2.2306 -1.26409,2.67765 -1.93501,2.75753 -2.15706,0.2568 -5.96909,-7.37717 -4.33515,-8.68135 0.79413,-0.6338 0.63842,-1.27975 -0.30845,-1.27975 h -0.8307 l 0.8307,-1.04746 c 0.99194,-1.25065 0.99722,-1.29803 0.22892,-2.03687 -0.33097,-0.31832 -0.69503,-1.13986 -0.80902,-1.82567 -0.11447,-0.68581 -0.54501,-1.72905 -0.95773,-2.31833 -0.69665,-0.994858 -0.91231,-1.087973 -3.01743,-1.303025 -3.30604,-0.337745 -3.6695,-0.465387 -4.21514,-1.479985 -0.27189,-0.505724 -0.4943,-0.994098 -0.4943,-1.08528 0,-0.09118 0.62279,-0.466962 1.38395,-0.835052 1.89823,-0.917818 2.52396,-1.504759 2.52396,-2.367404 0,-0.899105 -0.54475,-0.939971 -1.46359,-0.10971 -0.38021,0.343568 -1.36292,0.745299 -2.18365,0.892766 -1.7857,0.320845 -4.81962,2.636252 -4.81986,3.678377 -1.2e-4,0.394029 -0.32406,0.796382 -0.81433,1.011183 -0.54588,0.239244 -0.81406,0.609531 -0.81406,1.1241 0,0.42203 -0.21985,0.97874 -0.48855,1.23714 -0.26867,0.25839 -0.48852,0.68177 -0.48852,0.94086 0,0.47772 0.31794,0.62096 2.17429,0.97951 0.5721,0.11064 1.26568,0.53918 1.55173,0.95913 0.28459,0.41763 1.21127,1.07818 2.05933,1.46785 1.44391,0.66346 1.55248,0.79808 1.70487,2.11506 0.15267,1.31893 0.25919,1.45035 1.70975,2.11105 0.85075,0.38749 1.54693,0.82228 1.54693,0.96619 0,0.35611 -1.33362,1.48554 -2.03545,1.72372 -0.34994,0.11885 -0.56989,0.51572 -0.56989,1.02866 0,0.73331 -1.27023,2.31644 -1.85856,2.31644 -0.10838,0 -0.65028,-0.33146 -1.20453,-0.73658 -1.55196,-1.13438 -2.96178,-1.75007 -3.64452,-1.59157 -0.34083,0.0793 -0.83021,0.0119 -1.08734,-0.14958 -0.68299,-0.42857 0.0543,-1.16594 1.41144,-1.4107 2.41551,-0.43582 3.259,-3.31522 0.97111,-3.31522 -0.56041,0 -0.90074,0.28023 -1.23614,1.01789 l -0.46291,1.01789 -0.027,-0.86129 c -0.0156,-0.4737 -0.28311,-1.1203 -0.5966,-1.43687 -0.31338,-0.31657 -0.74785,-0.84508 -0.96535,-1.17449 -0.37787,-0.57212 -0.41628,-0.57396 -0.85741,-0.0413 -0.25392,0.3067 -0.4697,1.10967 -0.47929,1.78435 -0.0221,1.5604 -0.5935,2.61865 -1.30801,2.42366 -1.44723,-0.39497 -1.51998,-0.37342 -1.62215,0.48041 -0.0824,0.68645 0.0295,0.86128 0.55068,0.86128 1.09571,0 1.18642,0.67594 0.20026,1.49173 l -0.92204,0.76274 -0.51423,-0.64635 c -0.50859,-0.63932 -0.52878,-0.64002 -1.85635,-0.0644 -0.73815,0.32008 -2.02043,1.20703 -2.84954,1.97102 -1.22222,1.12626 -1.50742,1.59346 -1.50742,2.46928 0,1.53318 0.69408,2.3036 3.13411,3.47894 1.17509,0.56607 2.40715,1.1646 2.73788,1.33008 0.65038,0.32549 0.95552,1.09292 0.96252,2.42112 0,1.00887 0.426,1.31633 1.45953,1.06687 0.58232,-0.14058 0.81743,-0.47254 0.97668,-1.37965 0.11566,-0.65701 0.4788,-1.58868 0.80734,-2.07041 0.4042,-0.59263 0.55006,-1.2448 0.45072,-2.01674 -0.0799,-0.62747 0.13299,-2.19789 0.47475,-3.48985 l 0.62131,-2.34899 1.27074,0.077 c 1.55479,0.0944 2.80423,0.93711 3.18334,2.14733 0.82342,2.62836 1.16129,2.81975 2.7327,1.54802 l 0.95022,-0.76892 0.70307,1.20307 c 0.38671,0.66172 0.70304,1.41904 0.70304,1.68298 0,0.26394 0.64288,1.20416 1.42853,2.08935 1.34901,1.51996 1.82817,2.62759 1.82817,4.22647 0,0.38241 0.29307,0.95038 0.65124,1.26219 0.74823,0.65122 0.8712,2.2008 0.1945,2.45055 -0.25123,0.0928 -0.72745,-0.0287 -1.05842,-0.26972 -0.33085,-0.24107 -1.00451,-0.44281 -1.4971,-0.44829 -1.09001,-0.0119 -1.17457,-0.66614 -0.23482,-1.81511 0.36335,-0.44428 0.54241,-0.92144 0.39795,-1.0604 -0.14457,-0.13885 -1.2844,-0.072 -2.53323,0.14871 l -2.27054,0.4013 -0.0985,1.10844 c -0.0851,0.95441 0.0641,1.22693 1.06443,1.9612 1.18372,0.86824 1.26051,1.43832 0.194,1.43832 -0.32569,0 -0.77471,0.21141 -0.99762,0.46979 -0.25416,0.29449 -0.97112,0.46981 -1.92134,0.46981 -1.69083,0 -2.96362,0.66909 -2.96362,1.55796 0,0.36194 -0.4612,0.80034 -1.21696,1.15675 -1.42408,0.67159 -2.58133,2.20888 -3.12019,4.14484 -0.30722,1.10435 -0.71806,1.61625 -2.06511,2.57324 -2.22549,1.58115 -2.61124,2.65546 -1.90068,5.29272 0.66049,2.45135 0.56841,3.14288 -0.29589,2.22199 z m 44.595,-36.97568 c -0.11685,-0.18134 -0.43436,-0.32972 -0.70612,-0.32972 -0.76362,0 -2.55414,-1.85455 -2.15817,-2.23532 0.50574,-0.48643 5.32488,-0.37694 5.85514,0.13299 0.80693,0.77615 0.33453,1.26602 -2.56447,2.65875 -0.11818,0.0566 -0.30983,-0.0451 -0.42638,-0.22674 z m 6.66552,-7.9846 c 0,-0.26856 0.14645,-0.48828 0.32555,-0.48828 0.17923,0 0.32569,0.13264 0.32569,0.29471 0,0.16201 -0.14646,0.38183 -0.32569,0.48829 -0.17907,0.1064 -0.32555,-0.0261 -0.32555,-0.29472 z m -56.86187,-9.803626 c -0.94171,-0.857695 -0.94195,-0.859124 -0.19152,-0.963766 0.90013,-0.125458 2.34231,0.711976 2.34231,1.360164 0,0.742415 -1.12882,0.534403 -2.15079,-0.396398 z m 3.92259,0.515716 c -0.32322,-0.502958 0.73987,-1.43798 1.16745,-1.026773 0.18623,0.179135 0.24495,0.560672 0.13035,0.847876 -0.23643,0.59246 -0.96731,0.69321 -1.2978,0.178897 z m 2.97251,-1.693475 c -1.22557,-2.188666 0.77468,-3.645848 2.5978,-1.892489 1.36687,1.31452 0.84622,2.98964 -0.92916,2.98964 -0.87108,0 -1.16106,-0.190689 -1.66864,-1.097151 z m 62.83969,0.672618 c -0.75068,-0.527812 -0.45183,-1.454655 0.46896,-1.454655 0.51794,0 0.66148,0.203962 0.66148,0.939601 0,1.040245 -0.23276,1.146342 -1.13044,0.515054 z M 555.6487,94.473998 c 0,-0.172188 0.15527,-0.313209 0.34488,-0.313209 0.18967,0 0.25428,0.140929 0.14352,0.313209 -0.11077,0.172187 -0.26587,0.313183 -0.34489,0.313183 -0.0787,0 -0.14352,-0.140943 -0.14352,-0.313183 z" id="path4816" />
      <path style="fill:#00aa00;stroke-width:0.823;stroke:#000000;stroke-opacity:1;stroke-miterlimit:4;stroke-dasharray:none" d="m 628.20237,200.00531 c -0.40363,-0.27278 -0.73166,-0.78716 -0.72897,-1.14306 0.004,-0.35591 -0.50678,-1.87564 -1.13202,-3.37725 -0.62528,-1.50158 -1.27632,-3.4638 -1.44676,-4.36047 -0.17047,-0.89671 -0.68279,-2.51983 -1.13859,-3.60699 -0.99746,-2.37969 -1.00223,-2.50889 -0.14887,-4.068 0.81383,-1.48712 0.85192,-3.24286 0.1293,-5.98444 -0.48471,-1.83998 -0.52605,-5.31774 -0.40061,-33.69044 l 0.14007,-31.63863 0.82898,-1.17002 c 0.45595,-0.64349 1.14329,-1.26203 1.52722,-1.37455 0.57242,-0.1677 0.66112,-0.37018 0.49273,-1.1239 -0.15442,-0.69061 -0.0835,-0.91842 0.28324,-0.91564 0.26881,0.001 0.57695,0.22699 0.68489,0.49984 0.32953,0.83315 1.67659,0.44158 1.80179,-0.5238 0.12268,-0.94788 1.00447,-1.21733 3.84892,-1.17643 1.48144,0.0206 2.09713,0.26129 4.77513,1.86141 1.69085,1.01034 3.2536,2.18656 3.47266,2.61385 0.27727,0.54063 0.72382,0.80935 1.46863,0.8837 1.04741,0.10455 1.07056,0.0795 1.08002,-1.1731 0.007,-0.92776 0.14663,-1.27895 0.50753,-1.2762 0.27368,0.001 0.49632,0.18807 0.49463,0.41329 -0.007,0.95903 0.72298,1.15104 2.02535,0.53256 0.70036,-0.33256 2.19727,-0.80189 3.32655,-1.04295 2.46955,-0.52715 2.93399,-0.86778 2.37057,-1.73839 -0.3509,-0.54234 -0.31881,-0.62463 0.24239,-0.62035 0.35588,0.004 0.73032,0.13505 0.83208,0.29392 0.10177,0.1589 0.81826,0.38466 1.59222,0.50152 0.77397,0.11685 1.81596,0.28988 2.31547,0.38443 0.86497,0.16372 0.89873,0.12467 0.70755,-0.81788 -0.11011,-0.5444 -0.0466,-1.29913 0.14197,-1.67716 0.18865,-0.37804 0.62001,-1.30435 0.95878,-2.05845 l 0.61587,-1.3711 0.83226,1.66101 c 0.90261,1.80162 1.4319,2.14159 1.60651,1.03196 0.10813,-0.6862 0.13488,-0.67925 0.94048,0.24341 0.96469,1.10495 1.43192,1.2103 1.43861,0.32437 0.004,-0.34857 0.22603,-0.62834 0.5001,-0.62625 0.27232,10e-4 0.89049,-0.41091 1.37352,-0.91772 0.48299,-0.50681 1.30024,-1.00613 1.81611,-1.10958 0.62489,-0.12533 0.97405,-0.4153 1.04621,-0.86893 0.0712,-0.44678 0.45129,-0.77025 1.10599,-0.94095 0.54874,-0.14301 1.44699,-0.41694 1.99596,-0.60858 0.54916,-0.19166 1.93696,-0.346984 3.08409,-0.345211 2.27673,0.004 2.71496,-0.285338 2.73534,-1.803198 0.004,-0.532748 -0.1665,-0.867568 -0.45066,-0.869752 -0.57623,-0.0053 -0.88432,-0.719453 -0.53652,-1.244962 0.46037,-0.695301 1.48918,-0.191827 2.07728,1.01649 0.76214,1.565993 1.74171,2.129827 3.66176,2.107846 1.22541,-0.0139 1.76772,0.147664 2.39254,0.713391 0.74802,0.677226 0.77067,0.784736 0.30451,1.449086 -0.78176,1.11439 -0.64153,1.26706 1.38654,1.50893 1.04172,0.12413 2.82701,0.46942 3.96729,0.76702 2.05494,0.53637 2.08029,0.535 2.86625,-0.15526 0.86881,-0.76299 1.70103,-0.65316 2.22549,0.29375 0.19853,0.35835 0.24707,9.99546 0.12917,25.59968 -0.1653,21.86015 -0.25231,25.07412 -0.68991,25.41336 -0.27543,0.21358 -0.50461,0.8914 -0.50927,1.50624 -0.005,0.61485 -0.25889,1.37662 -0.56497,1.69282 -0.47841,0.4941 -0.49565,0.68482 -0.12321,1.35664 0.96958,1.75055 0.23975,4.70433 -1.35935,5.50143 -0.56135,0.27975 -0.68816,0.21088 -0.86228,-0.46801 -0.11209,-0.43784 -0.401,-0.79755 -0.64173,-0.79939 -0.24083,-0.001 -0.80068,-0.45026 -1.24426,-0.99654 -0.9279,-1.14287 -1.54998,-0.9916 -1.56034,0.3794 -0.009,1.13556 0.72416,2.58931 2.03735,4.04169 1.00963,1.11684 1.03652,1.42636 0.37531,4.33312 -0.27431,1.20602 0.28588,2.32226 1.16894,2.32898 0.68573,0.005 0.75211,0.18628 0.65079,1.77377 -0.0581,0.91465 0.0389,1.00599 1.44967,1.35441 1.2905,0.31882 1.51137,0.48906 1.50629,1.16082 -0.005,0.78684 -0.007,0.78697 -1.2468,0.28729 -1.73347,-0.69837 -5.13388,-4.0396 -6.34435,-6.23389 -0.55798,-1.01151 -1.52644,-2.21574 -2.15217,-2.67599 -1.12359,-0.82645 -1.4501,-1.39452 -0.79871,-1.38957 0.184,0.001 0.95433,0.4355 1.71149,0.96469 0.77653,0.54265 1.50319,0.84411 1.66653,0.69137 0.36839,-0.34435 -0.47555,-4.39417 -1.19644,-5.74148 -0.2981,-0.55732 -0.71756,-1.95561 -0.93188,-3.10725 -0.37971,-2.04033 -0.4183,-2.09822 -1.50877,-2.25997 -0.88625,-0.13141 -1.16996,-0.35226 -1.36281,-1.06058 -0.26927,-0.98849 -2.544,-4.32453 -2.95104,-4.32761 -0.14128,-0.001 -0.357,0.14904 -0.47907,0.33344 -0.12188,0.18448 -0.47731,0.42986 -0.78913,0.54531 -0.31196,0.1154 -1.86039,1.49021 -3.4411,3.05509 l -2.87407,2.84526 -0.25522,2.39906 c -0.28576,2.68706 -0.90912,3.62466 -1.70876,2.57025 -0.69452,-0.91577 -3.06526,-6.97085 -3.05889,-7.81267 0.007,-1.00703 -0.82783,-2.08306 -1.71726,-2.21175 -0.40235,-0.0582 -1.07572,-0.60466 -1.49623,-1.21427 -1.20755,-1.75022 -2.42466,-2.22359 -5.78252,-2.24913 -3.22003,-0.0245 -3.47225,0.17031 -2.06035,1.59041 l 0.85452,0.85948 -0.75546,1.53326 c -0.61505,1.24841 -1.13335,1.74332 -2.78949,2.66386 -2.28461,1.26974 -3.96544,1.98952 -5.19542,2.22465 -1.02197,0.19539 -3.00107,1.84418 -3.00606,2.5044 -0.005,0.78005 1.62153,0.98181 3.34663,0.41485 2.18069,-0.71672 2.74811,-0.67074 2.52672,0.20486 -0.59754,2.36427 -2.04514,4.65776 -4.6595,7.38218 -3.94334,4.10935 -4.11461,4.46461 -3.68795,7.64675 0.18976,1.4151 0.33882,3.38379 0.33133,4.37489 -0.0138,1.76056 -0.0488,1.82914 -1.55596,2.98288 -1.72587,1.32145 -2.46948,2.66255 -2.4832,4.47868 -0.007,0.86914 -0.2517,1.46873 -0.84533,2.06757 -0.45984,0.46389 -0.83809,1.10051 -0.84047,1.41472 -0.001,0.31422 -0.27216,0.90734 -0.59956,1.31805 -0.32735,0.41072 -0.81133,1.14405 -1.0754,1.62959 -0.2641,0.48557 -1.18297,1.36457 -2.04193,1.95336 -1.23181,0.84448 -1.87652,1.06814 -3.05282,1.05919 -0.92082,-0.007 -1.65084,0.16823 -1.90817,0.45802 -0.52125,0.58714 -0.67666,0.58425 -1.58537,-0.0299 z m 18.57865,-7.70718 c -0.43164,-0.50129 -0.47781,-1.91036 -0.14491,-4.42064 0.3488,-2.63038 0.47702,-2.90043 1.69574,-3.57081 0.64657,-0.35572 1.5028,-1.16422 1.9026,-1.79668 l 0.72698,-1.14987 0.42967,1.20632 c 0.37991,1.06663 0.35336,1.39577 -0.22986,2.84304 -0.36268,0.90022 -0.91057,2.53729 -1.21742,3.63795 -0.33357,1.19666 -0.90866,2.3468 -1.43033,2.86086 -1.00337,0.98857 -1.18218,1.02882 -1.73243,0.38983 z m 48.63435,-19.89706 c -0.33761,-0.77542 -0.35768,-1.13566 -0.0786,-1.39721 0.56294,-0.52627 0.77442,-0.12427 0.64688,1.22994 l -0.11447,1.21207 z m -21.6775,-5.47648 c -0.34023,-0.32785 -0.24643,-1.93652 0.12533,-2.15087 0.43656,-0.25165 1.1316,1.24513 0.87106,1.87583 -0.2134,0.51652 -0.62732,0.63078 -0.99645,0.27504 z M 646.2462,108.33132 c 0.11407,-0.17236 0.35673,-0.3123 0.53935,-0.31091 0.18252,0.001 0.23854,0.14354 0.1244,0.31595 -0.11408,0.17237 -0.35686,0.31232 -0.53937,0.31092 -0.18251,-10e-4 -0.2385,-0.14352 -0.1244,-0.31596 z m 3.41743,-2.17418 c -1.20614,-0.91478 -1.42462,-2.12838 -0.57633,-3.2006 0.38009,-0.48031 0.69212,-1.01839 0.69347,-1.19574 0.005,-0.75966 6.29506,-3.010156 7.57266,-2.709731 0.51554,0.121356 0.50605,0.161495 -0.0868,0.371121 -3.91657,1.38375 -6.8311,3.59085 -6.84313,5.18221 -0.004,0.54783 0.20103,1.02082 0.48936,1.1283 0.62058,0.2314 0.64952,1.06394 0.0373,1.05927 -0.24925,-0.001 -0.82763,-0.28757 -1.28549,-0.63483 z m -25.21249,-8.854547 c -0.58289,-0.736723 -0.85255,-1.423316 -0.78004,-1.985828 0.0973,-0.756905 0.2898,-0.883448 1.60598,-1.05774 0.82234,-0.108916 2.12156,-0.293716 2.88712,-0.410744 1.82539,-0.279012 3.29114,0.05717 2.77647,0.63682 -0.20383,0.229597 -0.96581,0.503157 -1.6934,0.607917 -1.53157,0.220558 -1.65547,0.532761 -0.50116,1.262881 0.45418,0.287284 0.8248,0.660827 0.82353,0.830063 -0.004,0.494171 -1.38735,0.343515 -1.79609,-0.195572 -0.48428,-0.638448 -1.44898,-0.299512 -1.58918,0.558303 -0.17185,1.050435 -0.77525,0.964745 -1.73323,-0.2461 z m 49.43898,-1.738365 c -0.36363,-0.199278 -0.73509,-0.448752 -0.82561,-0.554399 -0.0907,-0.105739 -0.57386,-0.366489 -1.07425,-0.579636 -1.17101,-0.498789 -1.14733,-0.861639 0.0864,-1.336184 1.12987,-0.434353 1.99915,-0.230589 1.99388,0.467386 -0.001,0.260855 0.44278,0.69763 0.98827,0.970568 0.54563,0.272938 0.99044,0.70524 0.9885,0.960669 -0.004,0.553102 -1.20658,0.593016 -2.15787,0.07146 z" id="path4818" />
      <path style="fill:#006600;stroke-width:0.816;stroke:#000000;stroke-opacity:1;stroke-miterlimit:4;stroke-dasharray:none" d="m 731.96401,210.12195 c -0.16856,-0.53064 -0.0226,-0.8472 0.61884,-1.3421 0.46184,-0.35622 1.53006,-1.23179 2.37386,-1.94572 0.84391,-0.71396 1.90774,-1.39166 2.36404,-1.50605 0.589,-0.14767 0.82958,-0.41477 0.82958,-0.92113 0,-0.39225 0.21895,-1.02539 0.48666,-1.40698 0.43935,-0.62649 0.43683,-0.78999 -0.0275,-1.68549 -0.34804,-0.67198 -0.40995,-1.09519 -0.19207,-1.31276 0.21787,-0.21755 0.46898,0.0316 0.77914,0.77274 0.2517,0.6016 0.83243,1.38818 1.29053,1.74805 l 0.8328,0.65424 -1.4715,1.2935 c -0.80925,0.71145 -1.62937,1.29624 -1.82227,1.29959 -0.19291,0.004 -1.34682,1.13439 -2.56423,2.51335 -2.29008,2.59381 -3.11987,3.02998 -3.4985,1.83876 z m -14.3486,-2.59789 c -0.67564,-0.81298 -0.27395,-1.59267 0.8776,-1.70321 0.92685,-0.0889 1.03776,-0.0191 0.9461,0.59539 -0.0574,0.38292 -0.40361,0.89384 -0.7698,1.13542 -0.57285,0.3778 -0.72021,0.37395 -1.0539,-0.0275 z m -1.52685,-4.75963 c -0.73992,-0.32111 -1.08689,-0.71732 -1.2229,-1.39643 -0.14888,-0.74336 -0.4379,-1.02797 -1.3387,-1.31796 -0.63178,-0.20342 -1.59484,-0.8484 -2.14008,-1.43332 -0.77792,-0.83468 -1.24106,-1.06348 -2.1525,-1.06348 -1.50257,0 -3.99725,0.6086 -4.60355,1.12306 -0.26091,0.22137 -1.0435,0.49183 -1.7392,0.60107 -0.69571,0.10919 -1.80438,0.3591 -2.4636,0.55522 -1.00457,0.29877 -1.28112,0.27431 -1.70717,-0.15111 -0.43089,-0.4303 -0.44845,-0.6523 -0.11461,-1.45556 0.32306,-0.77885 0.30322,-1.34275 -0.11116,-3.16207 -0.2774,-1.2178 -0.50437,-2.92888 -0.50437,-3.80245 0,-1.84465 0.25709,-2.08613 3.70648,-3.48147 1.62063,-0.65559 2.35831,-1.17035 3.08545,-2.15328 0.52552,-0.71045 1.46755,-1.7239 2.09345,-2.25214 1.05902,-0.89389 1.21023,-0.93371 2.18394,-0.575 0.83984,0.30942 1.07338,0.3053 1.185,-0.021 0.0765,-0.2235 0.48107,-0.81244 0.89913,-1.30874 0.41819,-0.49626 0.76037,-1.07463 0.76037,-1.28526 0,-0.23562 0.21287,-0.30067 0.55337,-0.16909 0.30442,0.11765 0.95697,0.29513 1.45021,0.39448 1.07254,0.2161 1.33789,0.74531 0.83972,1.67496 -0.3087,0.57585 -0.25673,0.80399 0.32305,1.42033 0.37994,0.40386 1.12421,0.91355 1.65378,1.13262 0.87547,0.36214 1.01647,0.33257 1.5499,-0.32536 0.35055,-0.43236 0.58682,-1.22661 0.58682,-1.97266 0,-1.31741 0.44805,-2.47058 0.95983,-2.47058 0.16789,0 0.30572,0.39079 0.30644,0.86842 5.8e-4,0.47764 0.35639,1.5675 0.79049,2.42195 0.43409,0.85442 0.78929,1.93097 0.78929,2.39231 0,0.48642 0.33213,1.15038 0.79048,1.58049 0.4348,0.40789 0.79061,0.91264 0.79061,1.12162 0,0.20899 0.23606,0.575 0.52443,0.81337 1.38665,1.14591 2.09897,4.69875 1.41688,7.06706 -0.43012,1.49343 -3.74721,5.93901 -4.8764,6.53538 -1.24322,0.65655 -2.88563,0.69306 -4.26426,0.0949 z M 734.817,188.37436 c -0.34027,-0.54993 0.0478,-0.6664 0.48104,-0.14457 0.24945,0.30012 0.27335,0.48132 0.0634,0.48132 -0.18498,0 -0.4301,-0.15165 -0.54472,-0.3368 z m -11.4294,-9.45486 c -0.37997,-0.15285 -0.84224,-0.56058 -1.02739,-0.90597 -0.48545,-0.90596 -1.4435,-1.10486 -2.37766,-0.49367 -1.06968,0.69992 -3.93079,0.3815 -3.30776,-0.36814 0.57345,-0.68997 -0.18262,-1.87385 -1.66391,-2.60575 -0.86648,-0.42811 -1.08269,-0.65796 -0.74197,-0.78855 0.58062,-0.22248 0.63596,-1.03609 0.086,-1.25906 -0.29869,-0.12109 -0.2811,-0.23927 0.0716,-0.484 0.33452,-0.23194 0.61084,-0.19393 0.97359,0.13385 0.27859,0.25173 0.93497,0.45769 1.45883,0.45769 2.02474,0 6.42903,2.89941 6.42903,4.23234 0,0.21692 0.35581,0.72816 0.79062,1.13609 1.24048,1.16386 0.92507,1.59536 -0.69093,0.94517 z m -19.62648,-0.39255 c 0.0728,-0.2171 0.39977,-0.44666 0.72774,-0.5101 0.51583,-0.0998 0.53902,-0.0464 0.1722,0.39473 -0.50164,0.60356 -1.08786,0.67872 -0.89997,0.1154 z m -2.03563,-0.76834 c 0.22826,-0.0912 0.501,-0.0799 0.60608,0.0249 0.10521,0.10482 -0.0813,0.17955 -0.41498,0.16581 -0.36836,-0.0156 -0.44327,-0.09 -0.1911,-0.19079 z m -5.00024,-0.91464 c 0,-0.75365 0.0765,-0.79807 1.02775,-0.59422 2.51702,0.53967 2.85836,1.40878 0.55335,1.40878 -1.4887,0 -1.5811,-0.0477 -1.5811,-0.81456 z m 28.42569,-1.73016 c 0.41602,-0.34592 0.84273,-0.54274 0.94826,-0.43734 0.22455,0.22426 -0.8794,1.09221 -1.36967,1.07682 -0.18418,-0.007 0,-0.29351 0.42141,-0.63948 z m -21.38972,-0.15024 c -0.8225,-0.57656 -0.90069,-1.51257 -0.2554,-3.05481 0.553,-1.32176 1.03419,-1.74723 2.07361,-1.8335 1.575,-0.13075 1.78151,-0.0139 1.01613,0.57405 -0.56387,0.43332 -0.77278,1.00469 -0.9486,2.59415 -0.24669,2.22923 -0.64334,2.59105 -1.88574,1.72011 z m -4.27152,-1.12184 c -0.30573,-0.17746 -0.68029,-0.24588 -0.83246,-0.15199 -0.15216,0.094 -0.64897,-0.12202 -1.10419,-0.47951 -0.67028,-0.52642 -0.8278,-0.91637 -0.8278,-2.04833 0,-0.76896 0.11236,-1.39812 0.24943,-1.39812 0.13713,0 1.21119,-0.85264 2.38677,-1.89474 2.27656,-2.01814 2.7147,-2.19024 3.52252,-1.38352 0.4433,0.44271 0.45201,0.58026 0.0646,1.02633 -0.24583,0.28328 -0.5316,1.27026 -0.63498,2.19324 -0.18358,1.63877 -1.32124,4.1839 -1.9522,4.36741 -0.17389,0.0506 -0.56638,-0.0532 -0.87209,-0.23075 z m 27.18079,-0.41266 c -0.12929,-0.32878 -0.1608,-0.67221 -0.0693,-0.76314 0.28838,-0.28802 0.54212,0.18397 0.42129,0.78363 -0.11117,0.54959 -0.12758,0.5486 -0.35161,-0.0205 z m -17.60774,-2.95478 c 0.0119,-0.68842 0.52744,-1.54737 0.78392,-1.29128 0.26818,0.26787 -0.16494,1.84391 -0.50676,1.84391 -0.15509,0 -0.27979,-0.24868 -0.27716,-0.55263 z m -2.37647,-4.84446 c -0.17389,-0.17202 -0.59902,-0.5074 -0.94452,-0.74516 -0.5982,-0.41167 -0.60202,-0.4612 -0.0789,-1.0383 0.80593,-0.88927 0.68891,-1.24447 -0.71566,-2.17272 -0.82909,-0.54791 -1.26496,-1.0717 -1.26496,-1.52026 0,-0.37641 -0.15664,-0.84083 -0.34816,-1.0321 -0.4286,-0.42799 -0.0979,-2.11961 0.51272,-2.62603 0.6754,-0.55975 1.1004,-0.0815 1.1004,1.23821 0,0.81218 0.21214,1.38739 0.66166,1.79362 0.92958,0.84006 1.36094,1.73406 1.29281,2.67918 -0.0371,0.52212 0.22337,1.05558 0.73276,1.49792 0.83196,0.7224 0.91157,0.9577 0.59924,1.77057 -0.21296,0.5543 -1.05819,0.63901 -1.54725,0.15511 z m -4.57524,-1.90634 c 0,-0.28269 0.20343,-0.69086 0.46434,-0.90709 0.60798,-0.50385 0.61431,0.0106 0.0119,0.80806 -0.38998,0.51498 -0.46588,0.53081 -0.47437,0.0991 z m -5.34909,-35.55382 c 0.0204,-13.8574 0.10031,-24.95328 0.17843,-24.6575 0.1904,0.72225 0.71771,0.84452 4.05392,0.93984 2.95433,0.0846 3.63653,-0.0814 3.63653,-0.88404 0,-0.38432 0.28505,-0.43526 1.50209,-0.2683 2.20461,0.30251 3.83529,0.72851 5.5941,1.46143 1.11953,0.46653 1.93799,0.59966 2.88755,0.46966 1.17711,-0.16113 1.4881,-0.0547 2.78343,0.95321 1.22768,0.95512 1.53578,1.07042 1.94775,0.72894 0.30836,-0.25553 1.24178,-0.38134 2.52219,-0.33991 1.11808,0.0361 2.32867,-0.0924 2.69021,-0.2857 1.05617,-0.56443 3.81796,0.18802 7.55872,2.05944 2.14724,1.07417 3.88919,1.72758 4.86328,1.82416 1.82285,0.18072 2.05842,0.36275 1.41171,1.09102 -0.27082,0.30501 -0.54271,0.82866 -0.60414,1.16369 -0.0609,0.33501 -0.21551,0.57715 -0.34241,0.5381 -0.59414,-0.1829 -3.6258,-1.6635 -4.12633,-2.01521 -0.4604,-0.3235 -0.6172,-0.30926 -0.86483,0.0786 -0.52135,0.81675 -0.35318,2.39124 0.32041,3 0.89591,0.80965 0.78787,1.10524 -0.40396,1.10524 -1.1096,0 -2.2517,0.6463 -3.16647,1.79178 -0.47293,0.59213 -0.68711,0.65425 -1.29808,0.37628 -0.57846,-0.26318 -1.00142,-0.19549 -2.01947,0.32316 -1.52218,0.7755 -1.94467,1.71281 -1.16159,2.57691 0.39991,0.44138 0.49528,0.90971 0.35758,1.75691 -0.23053,1.41862 -1.49229,3.9977 -2.03633,4.16229 -0.22409,0.0679 -0.62578,-0.41159 -0.91419,-1.09109 -1.30104,-3.06529 -1.14222,-4.4015 0.83819,-7.05217 0.69653,-0.93225 1.2664,-1.81139 1.2664,-1.95371 0,-0.3788 -1.08128,-0.31592 -1.48391,0.0863 -0.24991,0.24954 -0.52435,0.24954 -0.99118,0 -1.37934,-0.73716 -2.14557,-0.44136 -2.71519,1.04819 -0.52609,1.37575 -1.20222,1.95512 -1.8298,1.56784 -0.47855,-0.29535 -4.31801,-0.1556 -5.66306,0.20603 -0.90226,0.24261 -1.40219,0.67599 -2.1849,1.8941 -1.49611,2.32841 -1.43565,2.54195 0.95425,3.37019 1.1764,0.40775 2.10048,0.58033 2.16085,0.40365 0.29462,-0.86282 1.01481,-0.075 1.75521,1.91988 0.94646,2.54986 0.93835,2.50824 0.49326,2.50824 -0.18373,0 -0.61468,-0.6336 -0.95768,-1.40798 -0.34304,-0.77439 -0.74699,-1.4841 -0.89782,-1.57713 -0.3827,-0.23624 -0.65652,0.60917 -0.65652,2.02731 0,2.88402 -1.94477,6.38304 -3.74779,6.74316 -0.68713,0.1373 -1.13985,0.569 -1.76167,1.68002 l -0.8369,1.49533 0.95961,1.33443 c 1.07196,1.49056 1.20151,2.36558 0.45978,3.1062 -0.62662,0.62581 -0.95062,0.43523 -1.1764,-0.69192 -0.0967,-0.48547 -0.61359,-1.43163 -1.14761,-2.10263 -0.53387,-0.67098 -0.97082,-1.35243 -0.97082,-1.51432 0,-0.49543 -1.33621,-0.1281 -1.70693,0.46913 -0.26893,0.43342 -0.24025,0.633 0.12585,0.87439 0.39861,0.26277 0.33539,0.41688 -0.39522,0.9647 -1.09191,0.81863 -1.08581,1.07202 0.079,3.28348 1.13383,2.15251 1.22561,3.88774 0.30631,5.78797 -0.68234,1.41033 -2.84357,3.21202 -3.853,3.21202 -0.33323,0 -0.88108,0.14715 -1.21741,0.3269 -0.60249,0.322 -0.61106,-0.0506 -0.57499,-24.86838 z m 6.17271,24.066 c -0.23176,-0.60297 0.0933,-1.47022 0.46443,-1.2409 0.1556,0.0961 0.28302,0.44213 0.28302,0.76901 0,0.76394 -0.51118,1.08669 -0.74745,0.47189 z m 5.95577,-7.76467 c -0.24336,-0.76556 0.99173,-2.24487 2.53913,-3.04134 0.5218,-0.26855 1.0669,-0.69006 1.21143,-0.93667 0.14455,-0.24664 0.60689,-0.57912 1.02771,-0.73888 0.65364,-0.24817 0.76503,-0.49848 0.76503,-1.71933 0,-1.05142 0.12374,-1.42886 0.46827,-1.42886 0.62531,0 0.90785,1.25887 0.72021,3.20867 -0.15942,1.65716 -0.55002,2.1467 -1.71938,2.15491 -0.37886,0.004 -0.90236,0.21798 -1.16313,0.4785 -0.26091,0.26054 -0.59126,0.47437 -0.7342,0.47519 -0.14283,5.9e-4 -0.80125,0.49822 -1.46312,1.10527 -0.6619,0.60707 -1.25709,1.10377 -1.32269,1.10377 -0.0658,0 -0.21369,-0.29756 -0.32926,-0.66123 z m 5.94199,-9.1368 c -0.62171,-0.24968 -0.66772,-0.39004 -0.37779,-1.15188 0.18169,-0.47714 0.24312,-1.21476 0.13645,-1.63912 -0.19099,-0.76015 -0.17758,-0.75737 0.90056,0.188 0.6019,0.52776 1.286,1.02755 1.52027,1.11068 0.31528,0.11169 0.2267,0.36753 -0.34062,0.98388 -0.84428,0.91713 -0.83055,0.91333 -1.83879,0.50844 z m 14.46373,-30.30719 c 0,-0.17368 0.21346,-0.31579 0.47436,-0.31579 0.26077,0 0.47425,0.14215 0.47425,0.31579 0,0.17369 -0.21348,0.31579 -0.47425,0.31579 -0.2609,0 -0.47436,-0.14213 -0.47436,-0.31579 z m -28.00702,-5.273732 c -0.55156,-0.547821 -0.52242,-0.57196 0.80589,-0.668092 1.72848,-0.124928 2.93536,0.164261 2.77067,0.664016 -0.21562,0.654398 -2.91861,0.657478 -3.57656,0.004 z m 5.87152,0.221101 c -0.3522,-0.227228 -0.16391,-0.30736 0.73012,-0.310946 0.72344,-0.004 1.12644,0.121356 1.00908,0.310946 -0.24705,0.399141 -1.12082,0.399141 -1.7392,0 z" id="path4820" />
      <circle r="24.017939" cy="42.153862" cx="707.22375" id="path871" style="opacity:1;fill:#7eedff;fill-opacity:1;stroke:#42ccff;stroke-width:7.43800783;stroke-linecap:butt;stroke-linejoin:miter;stroke-miterlimit:4;stroke-dasharray:none;stroke-opacity:1;paint-order:markers stroke fill" />
      <circle r="1.6879091" cy="64.020622" cx="707.61688" id="path876-0" style="opacity:1;fill:#ffffff;fill-opacity:1;stroke:#42ccff;stroke-width:0;stroke-linecap:butt;stroke-linejoin:miter;stroke-miterlimit:4;stroke-dasharray:none;stroke-opacity:1;paint-order:markers stroke fill" />
      <path id="path907" d="m 690.77817,26.091661 12.5359,19.597686 6.97124,-6.971254 z" style="fill:#ff535b;fill-opacity:1;stroke:#b51010;stroke-width:0.93511766;stroke-linecap:butt;stroke-linejoin:bevel;stroke-miterlimit:4;stroke-dasharray:none;stroke-opacity:1" />
      <path id="path907-6" d="m 722.91176,58.225252 -19.59769,-12.535905 6.97124,-6.971254 z" style="fill:#c5b0b0;fill-opacity:1;stroke:#2f1111;stroke-width:0.93511766;stroke-linecap:butt;stroke-linejoin:bevel;stroke-miterlimit:4;stroke-dasharray:none;stroke-opacity:1" />
      <circle r="1.2774378" cy="42.416214" cx="706.85541" id="path924" style="opacity:1;fill:#ffffff;fill-opacity:1;stroke:#000000;stroke-width:0.47844887;stroke-linecap:butt;stroke-linejoin:bevel;stroke-miterlimit:4;stroke-dasharray:none;stroke-opacity:1;paint-order:markers stroke fill" />
      <circle r="1.6879091" cy="42.406746" cx="685.23682" id="path876-0-6" style="opacity:1;fill:#ffffff;fill-opacity:1;stroke:#42ccff;stroke-width:0;stroke-linecap:butt;stroke-linejoin:miter;stroke-miterlimit:4;stroke-dasharray:none;stroke-opacity:1;paint-order:markers stroke fill" />
      <circle r="1.6879091" cy="20.022921" cx="707.487" id="path876-0-4" style="opacity:1;fill:#ffffff;fill-opacity:1;stroke:#42ccff;stroke-width:0;stroke-linecap:butt;stroke-linejoin:miter;stroke-miterlimit:4;stroke-dasharray:none;stroke-opacity:1;paint-order:markers stroke fill" />
      <circle r="1.6879091" cy="42.47356" cx="729.13586" id="path876-0-47" style="opacity:1;fill:#ffffff;fill-opacity:1;stroke:#42ccff;stroke-width:0;stroke-linecap:butt;stroke-linejoin:miter;stroke-miterlimit:4;stroke-dasharray:none;stroke-opacity:1;paint-order:markers stroke fill" />
    </g>
  </g>
</svg>
